# xmcd
#
# Track frame offsets:
#	150
#	21005
#	35857
#	49060
#	67652
#	85730
#	102827
#	120605
#	129380
#	148875
#	164330
#	189005
#
# Disc length: 2920 seconds
#
# Revision: 2
# Processed by: cddbd v1.5.2PL0 Copyright (c) Steve Scherf et al.
# Submitted via: audiograbber 1.83.01
#
DISCID=990b660c
DTITLE=Variado - Blues De Acá
DYEAR=1993
DGENRE=Blues
TTITLE0=Pappo's Blues - Dr. Tazo
TTITLE1=Mississipi Blues Band - Un Poco Mas
TTITLE2=La Corte del Sr.Manga - Es Una Humildad
TTITLE3=Ratones Paranoicos - Damas Negras
TTITLE4=Durazno de Gala - No Mas Trampas
TTITLE5=Las Blancablues - Maldito Piano
TTITLE6=Los Piojos - Tan Solo
TTITLE7=Juanito y El Carposaurio - Tomé Demasiado
TTITLE8=Los Perros - Mira
TTITLE9=David Lebon - Practicamente Un Blues
TTITLE10=Memphis La Blusera - Nunca Tuve Tanto Blues
TTITLE11=Carneviva - Alma Del Vino
EXTD=
EXTT0=
EXTT1=
EXTT2=
EXTT3=
EXTT4=
EXTT5=
EXTT6=
EXTT7=
EXTT8=
EXTT9=
EXTT10=
EXTT11=
PLAYORDER=
